<svg xmlns="http://www.w3.org/2000/svg" version="1.1" x="0px" y="0px" fill="#009268"
     viewBox="0 0 90 112.5" style="enable-background:new 0 0 90 90;" xml:space="preserve"><g><path d="M40.2236328,59.6367188c1.8798828,0,3.4101563-1.5302734,3.4101563-3.4101563s-1.5302734-3.4101563-3.4101563-3.4101563   s-3.4101563,1.5302734-3.4101563,3.4101563S38.34375,59.6367188,40.2236328,59.6367188z M40.2236328,54.8164063   c0.7773438,0,1.4101563,0.6328125,1.4101563,1.4101563s-0.6328125,1.4101563-1.4101563,1.4101563   s-1.4101563-0.6328125-1.4101563-1.4101563S39.4462891,54.8164063,40.2236328,54.8164063z"/><path
        d="M79.3291016,26.9804688h-5.3037109V16.2324219c0-2.6484375-2.1552734-4.8037109-4.8037109-4.8037109H11.2246094   c-2.6484375,0-4.8027344,2.1552734-4.8027344,4.8037109v41.6826172c0,2.6484375,2.1542969,4.8027344,4.8027344,4.8027344   h17.6826172V65.34375H25c-2.7207031,0-4.9335938,2.2128906-4.9335938,4.9335938v0.8652344c0,0.5527344,0.4472656,1,1,1h25.7519531   v2.1796875c0,2.3427734,1.90625,4.2490234,4.2490234,4.2490234h28.2617188c2.3427734,0,4.2490234-1.90625,4.2490234-4.2490234   V31.2294922C83.578125,28.8867188,81.671875,26.9804688,79.3291016,26.9804688z M46.8183594,70.1425781H22.0693359   C22.1396484,68.5869141,23.4277344,67.34375,25,67.34375h21.8183594V70.1425781z M46.8183594,65.34375H30.9072266v-2.6259766   h15.9111328V65.34375z M46.8183594,60.7177734h-35.59375c-1.5458984,0-2.8027344-1.2568359-2.8027344-2.8027344v-5.8359375   h38.3964844V60.7177734z M46.8183594,31.2294922v18.8496094H8.421875V16.2324219   c0-1.5458984,1.2568359-2.8037109,2.8027344-2.8037109h57.9970703c1.5458984,0,2.8037109,1.2578125,2.8037109,2.8037109v10.7480469   H51.0673828C48.7246094,26.9804688,46.8183594,28.8867188,46.8183594,31.2294922z M81.578125,74.3222656   c0,1.2402344-1.0087891,2.2490234-2.2490234,2.2490234H51.0673828c-1.2402344,0-2.2490234-1.0087891-2.2490234-2.2490234   V31.2294922c0-1.2402344,1.0087891-2.2490234,2.2490234-2.2490234h28.2617188c1.2402344,0,2.2490234,1.0087891,2.2490234,2.2490234   V74.3222656z"/><path
        d="M79.0654297,31.1904297h-27.734375c-0.5527344,0-1,0.4472656-1,1v38.1679688c0,0.5527344,0.4472656,1,1,1h27.734375   c0.5527344,0,1-0.4472656,1-1V32.1904297C80.0654297,31.6376953,79.6181641,31.1904297,79.0654297,31.1904297z    M78.0654297,69.3583984h-25.734375V33.1904297h25.734375V69.3583984z"/></g>
</svg>