<svg width="67" height="64" viewBox="0 0 67 64" fill="none" xmlns="http://www.w3.org/2000/svg">
    <g clip-path="url(#clip0_3_2)">
        <path fill-rule="evenodd" clip-rule="evenodd"
              d="M33.0492 0C14.7895 0 0 14.6822 0 32.8094C0 47.3276 9.46033 59.5901 22.5974 63.9373C24.2498 64.2244 24.8695 63.2401 24.8695 62.3789C24.8695 61.5997 24.8282 59.0159 24.8282 56.2681C16.5246 57.7856 14.3764 54.2585 13.7154 52.413C13.3436 51.4697 11.7325 48.5579 10.3279 47.7787C9.17115 47.1635 7.51869 45.6461 10.2866 45.6051C12.8892 45.5641 14.7482 47.9837 15.3679 48.968C18.3423 53.9305 23.0931 52.5361 24.9934 51.6748C25.2826 49.5422 26.1502 48.1068 27.1003 47.2866C19.7469 46.4663 12.063 43.6365 12.063 31.0869C12.063 27.5189 13.3436 24.566 15.4505 22.2694C15.12 21.4491 13.9633 18.0862 15.781 13.5749C15.781 13.5749 18.5489 12.7136 24.8695 16.9379C27.5134 16.1996 30.3226 15.8305 33.1318 15.8305C35.941 15.8305 38.7502 16.1996 41.3941 16.9379C47.7148 12.6726 50.4826 13.5749 50.4826 13.5749C52.3003 18.0862 51.1436 21.4491 50.8131 22.2694C52.92 24.566 54.2007 27.4779 54.2007 31.0869C54.2007 43.6775 46.4754 46.4663 39.122 47.2866C40.32 48.3118 41.3528 50.2804 41.3528 53.3563C41.3528 57.7445 41.3115 61.2716 41.3115 62.3789C41.3115 63.2401 41.9311 64.2654 43.5836 63.9373C56.638 59.5901 66.0984 47.2866 66.0984 32.8094C66.0984 14.6822 51.3089 0 33.0492 0Z"
              fill="#009268"/>
    </g>
    <defs>
        <clipPath id="clip0_3_2">
            <rect width="66.0984" height="64" fill="transparent"/>
        </clipPath>
    </defs>
</svg>
