<svg width="64" height="64" viewBox="0 0 64 64" fill="none" xmlns="http://www.w3.org/2000/svg">
<path fill-rule="evenodd" clip-rule="evenodd" d="M4.7289 0.000307653H59.2711C59.8851 -0.00673619 60.4945 0.107237 61.0645 0.335718C61.6344 0.5642 62.1538 0.902714 62.5929 1.33193C63.0321 1.76115 63.3824 2.27266 63.6238 2.83726C63.8652 3.40185 63.993 4.00848 64 4.62249V59.3775C63.993 59.9915 63.8652 60.5981 63.6238 61.1627C63.3824 61.7273 63.0321 62.2388 62.5929 62.6681C62.1538 63.0973 61.6344 63.4358 61.0645 63.6643C60.4945 63.8928 59.8851 64.0067 59.2711 63.9997H4.7289C4.11488 64.0067 3.5055 63.8928 2.93553 63.6643C2.36557 63.4358 1.84619 63.0973 1.40706 62.6681C0.967938 62.2388 0.61766 61.7273 0.376234 61.1627C0.134809 60.5981 0.00696401 59.9915 0 59.3775V4.62249C0.00696401 4.00848 0.134809 3.40185 0.376234 2.83726C0.61766 2.27266 0.967938 1.76115 1.40706 1.33193C1.84619 0.902714 2.36557 0.5642 2.93553 0.335718C3.5055 0.107237 4.11488 -0.00673619 4.7289 0.000307653ZM18.9867 24.0001H9.49335V54.542H18.9867V24.0001ZM17.3196 9.81791C16.4133 9.21235 15.3478 8.88913 14.2578 8.88913C12.7962 8.88913 11.3944 9.46976 10.3609 10.5033C9.32732 11.5368 8.74669 12.9386 8.74669 14.4002C8.74669 15.4902 9.0699 16.5557 9.67547 17.462C10.281 18.3683 11.1418 19.0746 12.1488 19.4917C13.1558 19.9089 14.2639 20.018 15.333 19.8054C16.402 19.5927 17.384 19.0678 18.1547 18.2971C18.9255 17.5264 19.4504 16.5444 19.663 15.4753C19.8757 14.4063 19.7665 13.2982 19.3494 12.2912C18.9323 11.2842 18.2259 10.4235 17.3196 9.81791ZM34.0622 24H24.96V54.5242H34.4178V39.4132C34.4178 35.431 35.1645 31.5733 40.1067 31.5733C45.0489 31.5733 45.0489 36.1244 45.0489 39.6799V54.542H54.5422V37.7955C54.5422 29.5822 52.7822 23.2534 43.1645 23.2534C41.3626 23.186 39.5762 23.6083 37.9953 24.4755C36.4145 25.3426 35.0982 26.6221 34.1867 28.1778H34.0622V24Z" fill="#009268"/>
</svg>
