<svg width="128" height="128" viewBox="0 0 128 128" fill="none" xmlns="http://www.w3.org/2000/svg">
<rect x="2" y="2" width="124" height="124" rx="10" fill="#121B34"/>
<path d="M11.7606 64.8889L25.4187 69.2929V74.0898L8 66.5604V64.8889H11.7606ZM25.4187 59.9823L11.7606 64.8889H8V62.7147L25.4187 55.2056V59.9823Z" fill="#009268"/>
<path d="M44.7016 62.2222L44.387 60.4478H37.499H41.5769C42.7064 60.4478 43.6638 60.2859 44.449 59.962C45.248 59.6247 45.8541 59.1457 46.2673 58.525C46.6806 57.8908 46.8872 57.1284 46.8872 56.2378C46.8872 55.2528 46.6943 54.4499 46.3086 53.8292C45.9229 53.2085 45.3306 52.7565 44.5316 52.4731C43.7465 52.1898 42.7409 52.0481 41.5149 52.0481H36.4939V77.47H31.3075V48H41.5149C43.1679 48 44.6418 48.1552 45.9367 48.4655C47.2453 48.7759 48.3542 49.2616 49.2634 49.9228C50.1863 50.5705 50.882 51.3936 51.3503 52.3922C51.8325 53.3907 52.0735 54.5781 52.0735 55.9545C52.0735 57.1689 51.7774 58.2821 51.185 59.2941C50.5927 60.2926 49.718 61.109 48.5609 61.7432C47.4038 62.3774 46.4235 62.1008 44.7016 62.2222ZM42.3621 77.47H36.4939V73.4421H42.3621C43.5329 73.4421 44.511 73.2532 45.2962 72.8754C46.0813 72.4841 46.6668 71.9511 47.0525 71.2764C47.452 70.5882 47.6517 69.7854 47.6517 68.8678C47.6517 67.9098 47.4795 67.0799 47.1351 66.3782C46.7908 65.6631 46.2467 65.1166 45.5028 64.7388C44.7589 64.3475 43.7878 64.1518 42.5894 64.1518H36.4939V60.4478H44.387L44.7016 62.2222C46.3546 62.2762 48.5746 62.256 49.6353 62.9171C50.7098 63.5783 51.5087 64.4352 52.0322 65.4877C52.5557 66.5402 52.8174 67.6736 52.8174 68.888C52.8174 70.7637 52.3972 72.3357 51.557 73.604C50.7305 74.8724 49.5389 75.8372 47.9823 76.4984C46.4257 77.1461 44.5523 77.47 42.3621 77.47Z" fill="#E3F6FF"/>
<path d="M69.4715 66.4794H63.2314V62.4516H69.4715C70.8353 62.4516 71.9373 62.2357 72.7775 61.8039C73.6178 61.3721 74.2308 60.7784 74.6165 60.0228C75.016 59.2536 75.2158 58.3766 75.2158 57.3915C75.2158 56.4605 75.016 55.5901 74.6165 54.7805C74.2308 53.9574 73.6178 53.2962 72.7775 52.797C71.9373 52.2977 70.8353 52.0481 69.4715 52.0481H63.2314V77.47H58.045V48H69.4715C71.7995 48 73.7762 48.4048 75.4017 49.2144C77.041 50.0105 78.2876 51.117 79.1417 52.5338C79.9957 53.9372 80.4227 55.5429 80.4227 57.351C80.4227 59.2536 79.9957 60.8864 79.1417 62.2492C78.2876 63.6121 77.041 64.6578 75.4017 65.3865C73.7762 66.1151 71.7995 66.4794 69.4715 66.4794Z" fill="#E3F6FF"/>
<path d="M97.6554 48L85.9397 80H82.0344L93.7709 48H97.6554Z" fill="#009268"/>
<path d="M114.524 64.4444L101.147 59.9013V55.1853L119 62.6945V64.4444H114.524ZM101.147 69.3536L114.524 64.4444H119V66.5402L101.147 74.0696V69.3536Z" fill="#009268"/>
<rect x="2" y="2" width="124" height="124" rx="10" stroke="#E3F6FF" stroke-width="4"/>
</svg>
