<svg width="55" height="64" viewBox="0 0 55 64" fill="none" xmlns="http://www.w3.org/2000/svg">
<path d="M4.93292 12.6393C4.38002 12.6393 3.91475 12.8344 3.68106 13.2162C3.43903 13.6106 3.47659 14.1182 3.73323 14.6322L9.94041 25.4359C9.95084 25.4569 9.95084 25.4695 9.94041 25.4884L0.186245 42.7953C-0.0683017 43.3051 -0.055783 43.8169 0.186245 44.2113C0.419928 44.591 0.833056 44.8407 1.38597 44.8407H10.5664C11.9392 44.8407 12.6006 43.9092 13.0701 43.0575C13.0701 43.0575 22.6093 26.0946 22.9807 25.4359C22.9432 25.3751 16.6692 14.37 16.6692 14.37C16.2123 13.5518 15.5217 12.6393 14.1133 12.6393H4.93292Z" fill="#009268"/>
<path d="M43.5002 0C42.1294 0 41.5348 0.86852 41.0424 1.75799C41.0424 1.75799 21.2649 37.0221 20.614 38.1801C20.6474 38.2431 33.6584 62.242 33.6584 62.242C34.1133 63.0602 34.8164 64 36.2227 64H45.3927C45.9456 64 46.3774 63.7902 46.6111 63.4105C46.8552 63.0161 46.849 62.4958 46.5924 61.984L33.6501 38.2095C33.6376 38.1906 33.6376 38.1676 33.6501 38.1487L53.9763 2.01392C54.2309 1.50415 54.2371 0.983885 53.9951 0.589497C53.7614 0.209793 53.3274 0 52.7745 0H43.5002Z" fill="#009268"/>
</svg>
